<svg xmlns="http://www.w3.org/2000/svg" width="32" height="32" viewBox="0 0 32 32" shape-rendering="crispEdges">
  <rect width="32" height="32" fill="#c2b394"/>
  <rect x="6" y="0" width="20" height="32" fill="#cabd9f" opacity="0.5"/>
  <g fill="#a89878">
    <rect x="3" y="4" width="2" height="2"/><rect x="12" y="2" width="2" height="1"/><rect x="22" y="6" width="2" height="2"/>
    <rect x="27" y="3" width="2" height="2"/><rect x="5" y="13" width="2" height="2"/><rect x="16" y="11" width="2" height="1"/>
    <rect x="24" y="15" width="2" height="2"/><rect x="9" y="20" width="2" height="2"/><rect x="18" y="22" width="2" height="1"/>
    <rect x="28" y="24" width="2" height="2"/><rect x="2" y="27" width="2" height="2"/><rect x="14" y="28" width="2" height="2"/>
  </g>
  <g fill="#8a785a">
    <rect x="8" y="6" width="2" height="2"/><rect x="19" y="16" width="3" height="2"/><rect x="6" y="24" width="2" height="2"/><rect x="25" y="9" width="2" height="2"/>
  </g>
  <g fill="#dccfb2">
    <rect x="9" y="5" width="1" height="1"/><rect x="20" y="15" width="1" height="1"/><rect x="7" y="23" width="1" height="1"/>
    <rect x="13" y="9" width="2" height="1"/><rect x="26" y="20" width="2" height="1"/><rect x="3" y="18" width="2" height="1"/>
  </g>
</svg>
